<svg width="169" height="22" viewBox="0 0 169 22" fill="none" xmlns="http://www.w3.org/2000/svg">
<path d="M1.32 22C1.05333 22 0.92 21.8667 0.92 21.6V1.072C0.92 0.805332 1.05333 0.671999 1.32 0.671999H5.848C6.11467 0.671999 6.248 0.805332 6.248 1.072V17.728H10.28C10.5467 17.728 10.68 17.8613 10.68 18.128V21.6C10.68 21.8667 10.5467 22 10.28 22H1.32ZM13.6325 22C13.3658 22 13.2325 21.8667 13.2325 21.6V1.072C13.2325 0.805332 13.3658 0.671999 13.6325 0.671999H24.7845C25.0512 0.671999 25.1845 0.805332 25.1845 1.072V4.528C25.1845 4.79467 25.0512 4.928 24.7845 4.928H18.5605V9.472H24.2405C24.5072 9.472 24.6405 9.60533 24.6405 9.872V12.8C24.6405 13.0667 24.5072 13.2 24.2405 13.2H18.5605V17.728H24.7845C25.0512 17.728 25.1845 17.8613 25.1845 18.128V21.6C25.1845 21.8667 25.0512 22 24.7845 22H13.6325ZM33.1258 22C32.8804 22 32.6671 21.9093 32.4858 21.728L29.2858 18.528C29.1044 18.3573 29.0138 18.144 29.0138 17.888V4.768C29.0138 4.52267 29.1044 4.30933 29.2858 4.128L32.4858 0.927999C32.6671 0.757332 32.8804 0.671999 33.1258 0.671999H39.4138C39.6698 0.671999 39.8831 0.757332 40.0538 0.927999L43.2537 4.128C43.4351 4.30933 43.5258 4.52267 43.5258 4.768V17.888C43.5258 18.144 43.4351 18.3573 43.2537 18.528L40.0538 21.728C39.8831 21.9093 39.6698 22 39.4138 22H33.1258ZM35.0138 17.728H37.5258C37.9738 17.728 38.1978 17.4293 38.1978 16.832V5.84C38.1978 5.232 37.9738 4.928 37.5258 4.928H35.0138C34.5764 4.928 34.3578 5.232 34.3578 5.84V16.832C34.3578 17.4293 34.5764 17.728 35.0138 17.728ZM47.7575 22C47.4908 22 47.3575 21.8667 47.3575 21.6V1.072C47.3575 0.805332 47.4908 0.671999 47.7575 0.671999H52.2855C52.5522 0.671999 52.6855 0.805332 52.6855 1.072V17.728H56.7175C56.9842 17.728 57.1175 17.8613 57.1175 18.128V21.6C57.1175 21.8667 56.9842 22 56.7175 22H47.7575ZM60.07 22C59.8033 22 59.67 21.8667 59.67 21.6V1.072C59.67 0.805332 59.8033 0.671999 60.07 0.671999H71.222C71.4887 0.671999 71.622 0.805332 71.622 1.072V4.528C71.622 4.79467 71.4887 4.928 71.222 4.928H64.998V9.472H70.678C70.9447 9.472 71.078 9.60533 71.078 9.872V12.8C71.078 13.0667 70.9447 13.2 70.678 13.2H64.998V17.728H71.222C71.4887 17.728 71.622 17.8613 71.622 18.128V21.6C71.622 21.8667 71.4887 22 71.222 22H60.07ZM75.7393 22C75.4726 22 75.3393 21.8667 75.3393 21.6V6.768C75.3393 6.62933 75.3926 6.46933 75.4993 6.288L79.2913 0.911999C79.4086 0.751999 79.5793 0.671999 79.8033 0.671999H85.0993C85.3339 0.671999 85.5046 0.751999 85.6113 0.911999L89.4193 6.288C89.5259 6.43733 89.5793 6.59733 89.5793 6.768V21.6C89.5793 21.8667 89.4459 22 89.1793 22H84.6513C84.3846 22 84.2513 21.8667 84.2513 21.6V14.8H80.6833V21.6C80.6833 21.8667 80.5499 22 80.2833 22H75.7393ZM82.4593 11.36C83.4406 11.36 84.1019 11.1467 84.4433 10.72C84.7953 10.2827 84.9713 9.456 84.9713 8.24C84.9713 7.024 84.7953 6.20267 84.4433 5.776C84.1019 5.33867 83.4406 5.12 82.4593 5.12C81.4886 5.12 80.8273 5.33867 80.4753 5.776C80.1339 6.20267 79.9633 7.024 79.9633 8.24C79.9633 9.456 80.1339 10.2827 80.4753 10.72C80.8273 11.1467 81.4886 11.36 82.4593 11.36ZM96.9263 22C96.6596 22 96.5263 21.8667 96.5263 21.6V4.928H93.7263C93.4596 4.928 93.3263 4.79467 93.3263 4.528V1.072C93.3263 0.805332 93.4596 0.671999 93.7263 0.671999H104.654C104.921 0.671999 105.054 0.805332 105.054 1.072V4.528C105.054 4.79467 104.921 4.928 104.654 4.928H101.854V21.6C101.854 21.8667 101.721 22 101.454 22H96.9263ZM109.289 22C109.022 22 108.889 21.8667 108.889 21.6V1.072C108.889 0.805332 109.022 0.671999 109.289 0.671999H113.817C114.083 0.671999 114.217 0.805332 114.217 1.072V8.672H118.169V1.072C118.169 0.805332 118.302 0.671999 118.569 0.671999H123.097C123.363 0.671999 123.497 0.805332 123.497 1.072V21.6C123.497 21.8667 123.363 22 123.097 22H118.569C118.302 22 118.169 21.8667 118.169 21.6V12.928H114.217V21.6C114.217 21.8667 114.083 22 113.817 22H109.289ZM127.726 22C127.46 22 127.326 21.8667 127.326 21.6V1.072C127.326 0.805332 127.46 0.671999 127.726 0.671999H138.878C139.145 0.671999 139.278 0.805332 139.278 1.072V4.528C139.278 4.79467 139.145 4.928 138.878 4.928H132.654V9.472H138.334C138.601 9.472 138.734 9.60533 138.734 9.872V12.8C138.734 13.0667 138.601 13.2 138.334 13.2H132.654V17.728H138.878C139.145 17.728 139.278 17.8613 139.278 18.128V21.6C139.278 21.8667 139.145 22 138.878 22H127.726ZM143.508 22C143.241 22 143.108 21.8667 143.108 21.6V1.072C143.108 0.805332 143.241 0.671999 143.508 0.671999H152.18C152.436 0.671999 152.649 0.741332 152.82 0.879999L156.5 4.528C156.617 4.63467 156.686 4.72533 156.708 4.8C156.74 4.87467 156.756 4.99733 156.756 5.168V9.552C156.756 9.69067 156.702 9.81333 156.596 9.92L154.836 11.632L153.348 12.912L155.108 15.248L156.916 19.12C156.958 19.216 156.99 19.312 157.012 19.408C157.044 19.4933 157.06 19.6 157.06 19.728V21.6C157.06 21.8667 156.926 22 156.66 22H152.436C152.201 22 152.041 21.8933 151.956 21.68L149.38 14.192H148.18V21.6C148.18 21.8667 148.046 22 147.78 22H143.508ZM149.94 10.272C150.825 10.272 151.428 10.0907 151.748 9.728C152.068 9.35467 152.228 8.66133 152.228 7.648C152.228 6.624 152.068 5.93067 151.748 5.568C151.428 5.19467 150.825 5.008 149.94 5.008C149.065 5.008 148.462 5.19467 148.132 5.568C147.801 5.93067 147.636 6.624 147.636 7.648C147.636 8.66133 147.801 9.35467 148.132 9.728C148.462 10.0907 149.065 10.272 149.94 10.272ZM159.528 22C159.261 22 159.128 21.8667 159.128 21.6V18.592C159.128 18.4533 159.133 18.3413 159.144 18.256C159.165 18.1707 159.229 18.1013 159.336 18.048L163.528 16.128V13.28L159.4 10.72C159.218 10.6133 159.128 10.4533 159.128 10.24V4.368C159.128 4.19733 159.138 4.07467 159.16 4C159.181 3.91467 159.261 3.824 159.4 3.728L163.608 0.879999C163.714 0.815999 163.81 0.767998 163.896 0.735998C163.992 0.693332 164.109 0.671999 164.248 0.671999H168.568C168.834 0.671999 168.968 0.805332 168.968 1.072V3.792C168.968 4.02667 168.888 4.18667 168.728 4.272L164.536 6V8.96L168.728 11.36C168.888 11.4347 168.968 11.6053 168.968 11.872V18.832C168.968 18.9173 168.952 19.008 168.92 19.104C168.898 19.2 168.845 19.2693 168.76 19.312L163.736 21.808C163.672 21.84 163.592 21.8827 163.496 21.936C163.41 21.9787 163.325 22 163.24 22H159.528Z" fill="white"/>
</svg>
